<mxGraphModel dx="236" dy="806" grid="1" gridSize="10" guides="1" tooltips="1" connect="1" arrows="1" fold="1" page="1" pageScale="1" pageWidth="850" pageHeight="1100" math="0" shadow="0"><root><mxCell id="0" /><mxCell id="1" parent="0" /><mxCell id="sXATqEC3BQJJhkzxeBhH-7" style="edgeStyle=none;rounded=0;orthogonalLoop=1;jettySize=auto;html=1;exitX=1;exitY=0.25;exitDx=0;exitDy=0;entryX=0;entryY=0.25;entryDx=0;entryDy=0;endArrow=none;endFill=0;strokeWidth=2;" edge="1" parent="1" source="sXATqEC3BQJJhkzxeBhH-13" target="sXATqEC3BQJJhkzxeBhH-38"><mxGeometry relative="1" as="geometry" /></mxCell><mxCell id="sXATqEC3BQJJhkzxeBhH-8" value="9" style="edgeLabel;html=1;align=center;verticalAlign=middle;resizable=0;points=[];" vertex="1" connectable="0" parent="sXATqEC3BQJJhkzxeBhH-7"><mxGeometry x="-0.6695" y="-1" relative="1" as="geometry"><mxPoint x="1" as="offset" /></mxGeometry></mxCell><mxCell id="sXATqEC3BQJJhkzxeBhH-9" value="9" style="edgeLabel;html=1;align=center;verticalAlign=middle;resizable=0;points=[];" vertex="1" connectable="0" parent="sXATqEC3BQJJhkzxeBhH-7"><mxGeometry x="0.7422" y="3" relative="1" as="geometry"><mxPoint x="1" as="offset" /></mxGeometry></mxCell><mxCell id="sXATqEC3BQJJhkzxeBhH-10" style="edgeStyle=none;rounded=0;orthogonalLoop=1;jettySize=auto;html=1;exitX=1;exitY=0.75;exitDx=0;exitDy=0;entryX=0;entryY=0.75;entryDx=0;entryDy=0;endArrow=none;endFill=0;strokeWidth=2;" edge="1" parent="1" source="sXATqEC3BQJJhkzxeBhH-13" target="sXATqEC3BQJJhkzxeBhH-38"><mxGeometry relative="1" as="geometry" /></mxCell><mxCell id="sXATqEC3BQJJhkzxeBhH-11" value="10" style="edgeLabel;html=1;align=center;verticalAlign=middle;resizable=0;points=[];" vertex="1" connectable="0" parent="sXATqEC3BQJJhkzxeBhH-10"><mxGeometry x="-0.6909" y="-4" relative="1" as="geometry"><mxPoint x="1" as="offset" /></mxGeometry></mxCell><mxCell id="sXATqEC3BQJJhkzxeBhH-12" value="10" style="edgeLabel;html=1;align=center;verticalAlign=middle;resizable=0;points=[];" vertex="1" connectable="0" parent="sXATqEC3BQJJhkzxeBhH-10"><mxGeometry x="0.6781" y="-4" relative="1" as="geometry"><mxPoint x="1" as="offset" /></mxGeometry></mxCell><mxCell id="sXATqEC3BQJJhkzxeBhH-13" value="test 1&lt;br&gt;8.8.8.8" style="rounded=0;whiteSpace=wrap;html=1;fillColor=green;" vertex="1" parent="1"><mxGeometry x="1330" y="315" width="120" height="60" as="geometry" /></mxCell><mxCell id="sXATqEC3BQJJhkzxeBhH-32" style="edgeStyle=none;rounded=0;orthogonalLoop=1;jettySize=auto;html=1;exitX=1;exitY=0.25;exitDx=0;exitDy=0;entryX=0;entryY=0.5;entryDx=0;entryDy=0;endArrow=none;endFill=0;strokeWidth=2;" edge="1" parent="1" source="sXATqEC3BQJJhkzxeBhH-38" target="sXATqEC3BQJJhkzxeBhH-39"><mxGeometry relative="1" as="geometry" /></mxCell><mxCell id="sXATqEC3BQJJhkzxeBhH-33" value="8" style="edgeLabel;html=1;align=center;verticalAlign=middle;resizable=0;points=[];" vertex="1" connectable="0" parent="sXATqEC3BQJJhkzxeBhH-32"><mxGeometry x="-0.6669" y="2" relative="1" as="geometry"><mxPoint as="offset" /></mxGeometry></mxCell><mxCell id="sXATqEC3BQJJhkzxeBhH-34" value="G3" style="edgeLabel;html=1;align=center;verticalAlign=middle;resizable=0;points=[];" vertex="1" connectable="0" parent="sXATqEC3BQJJhkzxeBhH-32"><mxGeometry x="0.711" relative="1" as="geometry"><mxPoint as="offset" /></mxGeometry></mxCell><mxCell id="sXATqEC3BQJJhkzxeBhH-64" style="rounded=0;orthogonalLoop=1;jettySize=auto;html=1;exitX=0.5;exitY=1;exitDx=0;exitDy=0;endArrow=none;endFill=0;strokeWidth=2;" edge="1" parent="1" source="sXATqEC3BQJJhkzxeBhH-38" target="sXATqEC3BQJJhkzxeBhH-63"><mxGeometry relative="1" as="geometry" /></mxCell><mxCell id="sXATqEC3BQJJhkzxeBhH-38" value="test 2&lt;br&gt;1.1.1.1" style="rounded=0;whiteSpace=wrap;html=1;fillColor=green;" vertex="1" parent="1"><mxGeometry x="1560" y="315" width="120" height="60" as="geometry" /></mxCell><mxCell id="sXATqEC3BQJJhkzxeBhH-39" value="test 3&lt;br&gt;192.168.0.1" style="rounded=0;whiteSpace=wrap;html=1;fillColor=red;" vertex="1" parent="1"><mxGeometry x="1790" y="250" width="120" height="60" as="geometry" /></mxCell><mxCell id="sXATqEC3BQJJhkzxeBhH-63" value="shitty broken switch&lt;br&gt;192.168.7.2" style="rounded=0;whiteSpace=wrap;html=1;fillColor=red;" vertex="1" parent="1"><mxGeometry x="1640" y="460" width="120" height="60" as="geometry" /></mxCell></root></mxGraphModel>